# This file uses centimeters as units for non-parametric coordinates.

mtllib Sanitary_Accessories_ODF-Paris_Mobile-side-table-3-shelves-Nautic.mtl


g default

# VertexData Begin
# Vertices (Number of Vertices = 165)
v -200 -200 0
v -200 -200 5
v -200 -200 665
v -200 -174.993 0
v -200 -174.993 5
v -200 -174.993 91.5
v -200 -174.993 115
v -200 -174.993 366.5
v -200 -174.993 390
v -200 -174.993 641.5
v -200 -174.993 665
v -200 175 91.5
v -200 175 115
v -200 175 366.5
v -200 175 390
v -200 175 641.5
v -200 175 665
v -200 175.007 0
v -200 175.007 5
v -200 175.007 665
v -200 200 0
v -200 200 5
v -200 200 665
v -178 -174.993 91.5
v -178 -174.993 115
v -178 -174.993 366.5
v -178 -174.993 390
v -178 -174.993 641.5
v -178 -174.993 665
v -178 -172.5282 107
v -178 -172.5282 112
v -178 -172.5282 382
v -178 -172.5282 387
v -178 -172.5282 657
v -178 -172.5282 662
v -178 172.5282 107
v -178 172.5282 112
v -178 172.5282 382
v -178 172.5282 387
v -178 172.5282 657
v -178 172.5282 662
v -178 175 91.5
v -178 175 115
v -178 175 366.5
v -178 175 390
v -178 175 641.5
v -178 175 665
v -175 -200 0
v -175 -200 5
v -175 -200 90
v -175 -200 115
v -175 -200 365
v -175 -200 390
v -175 -200 640
v -175 -200 665
v -175 -175 90
v -175 -175 115
v -175 -175 365
v -175 -175 390
v -175 -175 640
v -175 -175 665
v -175 -174.993 0
v -175 -174.993 5
v -175 -174.993 665
v -175 175 90
v -175 175 115
v -175 175 365
v -175 175 390
v -175 175 640
v -175 175 665
v -175 175.007 0
v -175 175.007 5
v -175 175.007 665
v -175 200 0
v -175 200 5
v -175 200 90
v -175 200 115
v -175 200 365
v -175 200 390
v -175 200 640
v -175 200 665
v 175 -200 0
v 175 -200 5
v 175 -200 90
v 175 -200 115
v 175 -200 365
v 175 -200 390
v 175 -200 640
v 175 -200 665
v 175 -175.007 0
v 175 -175.007 5
v 175 -175.007 665
v 175 -175 90
v 175 -175 115
v 175 -175 365
v 175 -175 390
v 175 -175 640
v 175 -175 665
v 175 174.993 5
v 175 174.993 665
v 175 175 0
v 175 175 5
v 175 175 90
v 175 175 115
v 175 175 365
v 175 175 390
v 175 175 640
v 175 175 665
v 175 200 0
v 175 200 5
v 175 200 90
v 175 200 115
v 175 200 365
v 175 200 390
v 175 200 640
v 175 200 665
v 178 -174.993 91.5
v 178 -174.993 115
v 178 -174.993 366.5
v 178 -174.993 390
v 178 -174.993 641.5
v 178 -174.993 665
v 178 -172.5282 107
v 178 -172.5282 112
v 178 -172.5282 382
v 178 -172.5282 387
v 178 -172.5282 657
v 178 -172.5282 662
v 178 172.5282 107
v 178 172.5282 112
v 178 172.5282 382
v 178 172.5282 387
v 178 172.5282 657
v 178 172.5282 662
v 178 175 91.5
v 178 175 115
v 178 175 366.5
v 178 175 390
v 178 175 641.5
v 178 175 665
v 200 -200 0
v 200 -200 5
v 200 -200 665
v 200 -175.007 0
v 200 -175.007 5
v 200 -175.007 665
v 200 -174.993 91.5
v 200 -174.993 115
v 200 -174.993 366.5
v 200 -174.993 390
v 200 -174.993 641.5
v 200 -174.993 665
v 200 174.993 5
v 200 174.993 665
v 200 175 0
v 200 175 5
v 200 175 91.5
v 200 175 115
v 200 175 366.5
v 200 175 390
v 200 175 641.5
v 200 175 665
v 200 200 0
v 200 200 5
v 200 200 665

# Vertex normals (Number of vertex normals = 6)
vn -1 0 0
vn 0 -1 0
vn 0 0 -1
vn 0 0 1
vn 0 1 0
vn 1 0 0

# VertexData End
# Elements Begin

# Faces (Number of Faces = 276)

usemtl d51499dd_dbf9_4557_86d0_7abae87e6976
f 75//6 72//6 71//6 
f 71//6 74//6 75//6 
f 72//2 19//2 18//2 
f 18//2 71//2 72//2 
f 19//1 22//1 21//1 
f 21//1 18//1 19//1 
f 22//5 75//5 74//5 
f 74//5 21//5 22//5 
f 18//3 21//3 74//3 
f 74//3 71//3 18//3 
f 72//4 75//4 22//4 
f 22//4 19//4 72//4 

usemtl 1bfa4743_46d2_4cf6_8bdf_d1124d650f62
f 68//4 106//4 114//4 
f 114//4 79//4 68//4 
f 106//6 105//6 113//6 
f 113//6 114//6 106//6 
f 105//3 67//3 78//3 
f 78//3 113//3 105//3 
f 67//1 68//1 79//1 
f 79//1 78//1 67//1 
f 113//5 78//5 79//5 
f 79//5 114//5 113//5 
f 106//2 68//2 67//2 
f 67//2 105//2 106//2 
f 146//6 143//6 142//6 
f 142//6 145//6 146//6 
f 143//2 89//2 83//2 
f 83//2 142//2 143//2 
f 89//1 92//1 91//1 
f 91//1 83//1 89//1 
f 92//5 146//5 145//5 
f 145//5 91//5 92//5 
f 145//3 142//3 83//3 
f 83//3 91//3 145//3 
f 89//4 146//4 92//4 
f 146//4 89//4 143//4 
f 66//4 104//4 112//4 
f 112//4 77//4 66//4 
f 104//6 103//6 111//6 
f 111//6 112//6 104//6 
f 103//3 65//3 76//3 
f 76//3 111//3 103//3 
f 65//1 66//1 77//1 
f 77//1 76//1 65//1 
f 111//5 76//5 77//5 
f 77//5 112//5 111//5 
f 104//2 66//2 65//2 
f 65//2 103//2 104//2 
f 87//4 96//4 59//4 
f 59//4 53//4 87//4 
f 95//6 96//6 87//6 
f 87//6 86//6 95//6 
f 86//3 58//3 95//3 
f 58//3 86//3 52//3 
f 59//1 58//1 52//1 
f 52//1 53//1 59//1 
f 86//2 87//2 53//2 
f 53//2 52//2 86//2 
f 58//5 59//5 96//5 
f 96//5 95//5 58//5 
f 73//2 20//2 19//2 
f 19//2 72//2 73//2 
f 20//1 23//1 22//1 
f 22//1 19//1 20//1 
f 23//5 81//5 75//5 
f 75//5 22//5 23//5 
f 81//6 73//6 72//6 
f 72//6 75//6 81//6 
f 72//3 19//3 22//3 
f 22//3 75//3 72//3 
f 81//4 23//4 20//4 
f 20//4 73//4 81//4 
f 11//5 64//5 63//5 
f 63//5 5//5 11//5 
f 64//6 55//6 49//6 
f 49//6 63//6 64//6 
f 55//2 3//2 2//2 
f 2//2 49//2 55//2 
f 3//1 11//1 5//1 
f 5//1 2//1 3//1 
f 49//3 2//3 5//3 
f 5//3 63//3 49//3 
f 64//4 11//4 3//4 
f 3//4 55//4 64//4 
f 85//4 94//4 57//4 
f 57//4 51//4 85//4 
f 93//6 94//6 85//6 
f 85//6 84//6 93//6 
f 84//3 56//3 93//3 
f 56//3 84//3 50//3 
f 57//1 56//1 50//1 
f 50//1 51//1 57//1 
f 84//2 85//2 51//2 
f 51//2 50//2 84//2 
f 56//5 57//5 94//5 
f 94//5 93//5 56//5 
f 116//5 165//5 164//5 
f 164//5 110//5 116//5 
f 165//6 154//6 153//6 
f 153//6 164//6 165//6 
f 154//2 100//2 99//2 
f 99//2 153//2 154//2 
f 100//1 116//1 110//1 
f 110//1 99//1 100//1 
f 164//3 153//3 99//3 
f 99//3 110//3 164//3 
f 100//4 165//4 116//4 
f 165//4 100//4 154//4 

usemtl 825b8502_cd20_45d9_aaa5_07486045c728
f 39//5 132//5 131//5 
f 131//5 38//5 39//5 
f 132//6 126//6 125//6 
f 125//6 131//6 132//6 
f 126//2 33//2 32//2 
f 32//2 125//2 126//2 
f 33//1 39//1 38//1 
f 38//1 32//1 33//1 
f 131//3 125//3 32//3 
f 32//3 38//3 131//3 
f 39//4 33//4 126//4 
f 126//4 132//4 39//4 
f 41//5 134//5 133//5 
f 133//5 40//5 41//5 
f 134//6 128//6 127//6 
f 127//6 133//6 134//6 
f 128//2 35//2 34//2 
f 34//2 127//2 128//2 
f 35//1 41//1 40//1 
f 40//1 34//1 35//1 
f 133//3 127//3 34//3 
f 34//3 40//3 133//3 
f 41//4 35//4 128//4 
f 128//4 134//4 41//4 

usemtl 1bfa4743_46d2_4cf6_8bdf_d1124d650f62
f 24//2 25//2 7//2 
f 7//2 6//2 24//2 
f 12//3 42//3 24//3 
f 24//3 6//3 12//3 
f 43//5 42//5 12//5 
f 12//5 13//5 43//5 
f 7//4 25//4 43//4 
f 43//4 13//4 7//4 
f 12//1 6//1 7//1 
f 7//1 13//1 12//1 
f 43//6 25//6 24//6 
f 24//6 42//6 43//6 
f 107//3 69//3 80//3 
f 80//3 115//3 107//3 
f 69//1 70//1 81//1 
f 81//1 80//1 69//1 
f 70//4 108//4 116//4 
f 116//4 81//4 70//4 
f 108//6 107//6 115//6 
f 115//6 116//6 108//6 
f 115//5 80//5 81//5 
f 81//5 116//5 115//5 
f 108//2 70//2 69//2 
f 69//2 107//2 108//2 
f 120//2 119//2 149//2 
f 149//2 150//2 120//2 
f 149//3 119//3 137//3 
f 137//3 159//3 149//3 
f 137//5 138//5 160//5 
f 160//5 159//5 137//5 
f 160//4 138//4 120//4 
f 120//4 150//4 160//4 
f 159//6 160//6 150//6 
f 150//6 149//6 159//6 
f 119//1 120//1 138//1 
f 138//1 137//1 119//1 
f 88//3 60//3 97//3 
f 60//3 88//3 54//3 
f 61//1 60//1 54//1 
f 54//1 55//1 61//1 
f 89//4 98//4 61//4 
f 61//4 55//4 89//4 
f 97//6 98//6 89//6 
f 89//6 88//6 97//6 
f 88//2 89//2 55//2 
f 55//2 54//2 88//2 
f 60//5 61//5 98//5 
f 98//5 97//5 60//5 

usemtl d51499dd_dbf9_4557_86d0_7abae87e6976
f 142//2 83//2 82//2 
f 82//2 141//2 142//2 
f 83//1 91//1 90//1 
f 90//1 82//1 83//1 
f 91//5 145//5 144//5 
f 144//5 90//5 91//5 
f 145//6 142//6 141//6 
f 141//6 144//6 145//6 
f 82//3 90//3 144//3 
f 144//3 141//3 82//3 
f 142//4 145//4 91//4 
f 91//4 83//4 142//4 

usemtl 1bfa4743_46d2_4cf6_8bdf_d1124d650f62
f 26//2 27//2 9//2 
f 9//2 8//2 26//2 
f 14//3 44//3 26//3 
f 26//3 8//3 14//3 
f 45//5 44//5 14//5 
f 14//5 15//5 45//5 
f 9//4 27//4 45//4 
f 45//4 15//4 9//4 
f 14//1 8//1 9//1 
f 9//1 15//1 14//1 
f 45//6 27//6 26//6 
f 26//6 44//6 45//6 

usemtl d51499dd_dbf9_4557_86d0_7abae87e6976
f 156//2 102//2 101//2 
f 101//2 155//2 156//2 
f 102//1 110//1 109//1 
f 109//1 101//1 102//1 
f 110//5 164//5 163//5 
f 163//5 109//5 110//5 
f 164//6 156//6 155//6 
f 155//6 163//6 164//6 
f 101//3 109//3 163//3 
f 163//3 155//3 101//3 
f 156//4 164//4 110//4 
f 110//4 102//4 156//4 

usemtl 825b8502_cd20_45d9_aaa5_07486045c728
f 37//5 130//5 129//5 
f 129//5 36//5 37//5 
f 130//6 124//6 123//6 
f 123//6 129//6 130//6 
f 124//2 31//2 30//2 
f 30//2 123//2 124//2 
f 31//1 37//1 36//1 
f 36//1 30//1 31//1 
f 129//3 123//3 30//3 
f 30//3 36//3 129//3 
f 37//4 31//4 124//4 
f 124//4 130//4 37//4 

usemtl 1bfa4743_46d2_4cf6_8bdf_d1124d650f62
f 28//2 29//2 11//2 
f 11//2 10//2 28//2 
f 16//3 46//3 28//3 
f 28//3 10//3 16//3 
f 47//5 46//5 16//5 
f 16//5 17//5 47//5 
f 11//4 29//4 47//4 
f 47//4 17//4 11//4 
f 16//1 10//1 11//1 
f 11//1 17//1 16//1 
f 47//6 29//6 28//6 
f 28//6 46//6 47//6 
f 122//2 121//2 151//2 
f 151//2 152//2 122//2 
f 151//3 121//3 139//3 
f 139//3 161//3 151//3 
f 139//5 140//5 162//5 
f 162//5 161//5 139//5 
f 162//4 140//4 122//4 
f 122//4 152//4 162//4 
f 161//6 162//6 152//6 
f 152//6 151//6 161//6 
f 121//1 122//1 140//1 
f 140//1 139//1 121//1 

usemtl d51499dd_dbf9_4557_86d0_7abae87e6976
f 63//6 49//6 48//6 
f 48//6 62//6 63//6 
f 49//2 2//2 1//2 
f 1//2 48//2 49//2 
f 2//1 5//1 4//1 
f 4//1 1//1 2//1 
f 5//5 63//5 62//5 
f 62//5 4//5 5//5 
f 1//3 4//3 62//3 
f 62//3 48//3 1//3 
f 49//4 63//4 5//4 
f 5//4 2//4 49//4 

usemtl 1bfa4743_46d2_4cf6_8bdf_d1124d650f62
f 118//2 117//2 147//2 
f 147//2 148//2 118//2 
f 147//3 117//3 135//3 
f 135//3 157//3 147//3 
f 135//5 136//5 158//5 
f 158//5 157//5 135//5 
f 158//4 136//4 118//4 
f 118//4 148//4 158//4 
f 157//6 158//6 148//6 
f 148//6 147//6 157//6 
f 117//1 118//1 136//1 
f 136//1 135//1 117//1 

# Elements End

# endsolid Sanitary_Accessories_ODF-Paris_Mobile-side-table-3-shelves-Nautic
